<svg id="Layer_header" xmlns="http://www.w3.org/2000/svg" class="h-12 w-auto" viewBox="0 0 609.97 290.13"><defs><style>
          .cls-a { fill: #1f4690; }
          .cls-b { fill: orange; }
          </style></defs><circle class="cls-a" cx="140.47" cy="108.31" r="108.31"></circle><circle class="cls-a" cx="300.45" cy="108.31" r="108.31"></circle><circle class="cls-a" cx="461.93" cy="108.77" r="108.31"></circle><path class="cls-b" d="M171.31,133.46v28.07h-41.89v-95.56h-17.31v95.56h-6.11V59.86h29.67v73.6h35.63ZM165.05,139.57h-29.38v15.85h29.38v-15.85Z"></path><path class="cls-b" d="M341.98,128.9c0,16.29-13.96,32.87-40.43,32.87-22.25,0-37.38-9.89-41.45-27.05l-.73-2.76,5.96-1.74c0,1.74,1.31,5.53,1.45,5.96,6.11,17.45,26.03,19.34,34.76,19.34,22.54,0,34.33-13.38,34.33-26.62,0-12.22-4.22-19.2-27.93-25.89-1.02-.29-1.89-.44-3.06-.73-7.56-2.04-17.89-4.65-17.89-13.53,0-7.27,5.96-12.22,14.4-12.22,7.27,0,12.8,3.2,15.42,8.73l15.71-3.93c-4.07-11.34-15.56-18.62-30.11-18.62-19.05,0-32,10.47-32,26.18,0,14.4,7.42,22.11,25.45,26.47,1.45.44,2.91.73,4.22,1.02,9.45,2.33,18.33,4.36,18.33,12.94,0,7.71-6.54,12.36-17.16,12.36s-16.14-5.09-18.62-10.47c0,0-1.45-4.07-1.45-5.96l5.67-1.75.73,3.2c1.02,4.36,5.09,8.87,13.67,8.87,2.62,0,10.91-.44,10.91-6.25,0-3.35-4.07-4.66-13.38-6.98-1.45-.29-2.91-.58-4.51-1.02-20.65-5.09-29.96-15.13-29.96-32.43,0-19.34,15.27-32.29,38.11-32.29,18.62,0,33.16,10.33,36.94,26.18l.73,3.05-27.34,6.69-.87-2.91c-.58-2.62-2.91-6.98-10.47-6.98-4.07,0-8.29,1.6-8.29,6.11,0,3.78,6.11,5.67,13.38,7.56,1.02.29,2.04.58,3.05.73,24,6.84,32.43,15.13,32.43,31.85Z"></path><path class="cls-b" d="M511.97,136.63l5.09,3.34-1.89,2.47c-.14.29-.29.44-.44.58-9.45,12.22-24.29,19.34-40.72,19.34-14.4,0-27.64-5.38-37.09-15.13-9.31-9.6-14.54-22.98-14.54-37.52s5.24-27.93,14.54-37.52c9.45-9.6,22.69-14.98,37.09-14.98,16.72,0,31.56,7.13,41.16,19.63l1.89,2.62-24.58,16.14-1.75-2.18c-2.76-3.49-7.85-7.56-16.72-7.56-15.13,0-21.96,12.36-21.96,23.85s6.84,24,21.96,24c2.62,0,4.94-.44,7.13-1.16,3.49-1.02,6.54-3.06,9.02-5.82.14-.29.44-.44.58-.73l1.46-2.04.29-.29,5.24,3.49c-1.16,1.75-2.47,3.35-3.93,4.65-.29.29-.44.44-.58.58-2.91,2.76-6.26,4.8-10.04,5.96-2.91.87-5.96,1.46-9.16,1.46-18.47,0-28.22-15.13-28.22-30.11s9.74-29.96,28.22-29.96c7.85,0,14.69,2.76,19.63,7.71l14.54-9.45c-8.44-9.45-20.36-14.69-34.18-14.69-26.33,0-45.52,19.49-45.52,46.4s19.2,46.4,45.52,46.4c5.09,0,9.89-.73,14.4-2.04,7.71-2.33,14.55-6.69,19.78-12.65v-.14c1.31-1.45,2.62-3.06,3.78-4.65Z"></path><path d="M0,254.18h6.26v30.9h13.32v4.74H0v-35.63Z"></path><path d="M28.74,254.18h6.26v35.63h-6.26v-35.63Z"></path><path d="M67.84,289.82h-4.42l-5.95-13.53c-.18-.38-.4-.91-.66-1.58-.26-.67-.55-1.4-.87-2.21-.31-.81-.65-1.66-1-2.55-.35-.89-.68-1.8-1-2.71,0,.91,0,1.82-.03,2.71-.02.9-.04,1.74-.08,2.53-.03.79-.06,1.49-.08,2.11-.02.61-.03,1.1-.03,1.45l-.53,13.79h-5.89l2.11-35.74h4.9l9,22.32c.31.81.67,1.68,1.08,2.63.4.95.78,1.88,1.13,2.79.35-.91.72-1.83,1.11-2.76.38-.93.75-1.82,1.1-2.66l9.05-22.32h4.79l2.11,35.74h-5.84l-.58-13.63c-.04-.88-.08-2.13-.13-3.76-.05-1.63-.1-3.29-.13-4.97-.32.88-.64,1.76-.97,2.63-.33.88-.64,1.7-.92,2.47-.28.77-.54,1.47-.79,2.11-.25.63-.44,1.12-.58,1.47l-5.89,13.69Z"></path><path d="M105.74,254.18h4.95l13.74,35.63h-6.68l-3.26-9.32h-12.84l-3.37,9.32h-6.21l13.68-35.63ZM112.85,275.87c-1.12-3.16-2.09-6.03-2.9-8.61-.81-2.58-1.42-4.61-1.84-6.08-.49,1.58-1.14,3.65-1.95,6.21-.81,2.56-1.76,5.39-2.84,8.47h9.53Z"></path><path d="M162.48,253.71c1.23,0,2.4.11,3.53.34,1.12.23,2.15.49,3.08.79.93.3,1.72.61,2.37.92.65.32,1.1.56,1.34.74l-2.58,4.53-.69-.37c-.46-.24-1.05-.53-1.79-.84s-1.54-.6-2.42-.84c-.88-.25-1.72-.37-2.53-.37-1.26,0-2.36.3-3.29.89-.93.6-1.39,1.53-1.39,2.79,0,1.58.51,2.87,1.53,3.87,1.02,1,2.61,1.92,4.79,2.76,1.4.56,2.66,1.15,3.76,1.76,1.1.62,2.04,1.33,2.82,2.13.77.81,1.36,1.74,1.76,2.79.4,1.05.61,2.32.61,3.79,0,1.33-.26,2.65-.76,3.95-.51,1.3-1.26,2.45-2.26,3.45s-2.24,1.81-3.71,2.42c-1.47.62-3.18.92-5.11.92-1.37,0-2.67-.14-3.9-.42-1.23-.28-2.34-.6-3.34-.97s-1.86-.74-2.58-1.13c-.72-.39-1.26-.69-1.61-.9l2.21-4.84.95.53c.63.35,1.4.74,2.32,1.16.91.42,1.88.81,2.9,1.16,1.02.35,1.89.53,2.63.53,1.86,0,3.25-.46,4.16-1.37.91-.91,1.37-2.19,1.37-3.84,0-.77-.12-1.45-.37-2.03-.24-.58-.6-1.08-1.05-1.5-.46-.42-1.01-.8-1.66-1.13s-1.38-.66-2.18-.97c-1.58-.67-2.99-1.33-4.24-2-1.24-.67-2.31-1.43-3.18-2.29-.88-.86-1.54-1.84-2-2.95-.45-1.11-.68-2.43-.68-3.97,0-1.3.28-2.52.84-3.66.56-1.14,1.33-2.14,2.32-3s2.16-1.54,3.53-2.05c1.37-.51,2.88-.76,4.53-.76Z"></path><path d="M190.06,254.18v22.05c0,3.26.68,5.59,2.05,6.97,1.37,1.39,3.23,2.08,5.58,2.08s4.15-.8,5.29-2.4c1.14-1.6,1.71-3.82,1.71-6.66v-22.05h6.26v22.53c0,1.83-.24,3.54-.71,5.16-.47,1.61-1.26,3.04-2.34,4.26-1.09,1.23-2.53,2.2-4.32,2.92-1.79.72-3.98,1.08-6.58,1.08s-4.57-.36-6.24-1.08c-1.67-.72-3.02-1.69-4.05-2.92-1.04-1.23-1.77-2.65-2.21-4.26-.44-1.61-.66-3.33-.66-5.16v-22.53h6.21Z"></path><path d="M223.27,254.18c.24,0,.81,0,1.68-.03s1.86-.03,2.95-.03,2.18,0,3.26-.03c1.09-.02,1.98-.03,2.68-.03,4.28,0,7.44.96,9.47,2.87,2.04,1.91,3.05,4.54,3.05,7.87,0,1.61-.28,3.1-.84,4.45-.56,1.35-1.39,2.52-2.5,3.5-1.11.98-2.47,1.75-4.11,2.29-1.63.54-3.54.82-5.71.82h-3.68v13.95h-6.26v-35.63ZM229.53,271.18h4.05c2.21,0,3.79-.58,4.74-1.74.95-1.16,1.42-2.63,1.42-4.42,0-.81-.11-1.6-.32-2.37-.21-.77-.57-1.46-1.08-2.08-.51-.61-1.19-1.1-2.05-1.47-.86-.37-1.94-.55-3.24-.55h-2.03c-.58,0-1.08.02-1.5.05v12.58Z"></path><path d="M256.9,254.18c.24,0,.81,0,1.68-.03s1.86-.03,2.95-.03,2.18,0,3.26-.03c1.09-.02,1.98-.03,2.68-.03,4.28,0,7.44.96,9.47,2.87,2.04,1.91,3.05,4.54,3.05,7.87,0,1.61-.28,3.1-.84,4.45-.56,1.35-1.39,2.52-2.5,3.5s-2.47,1.75-4.11,2.29c-1.63.54-3.54.82-5.71.82h-3.68v13.95h-6.26v-35.63ZM263.16,271.18h4.05c2.21,0,3.79-.58,4.74-1.74.95-1.16,1.42-2.63,1.42-4.42,0-.81-.11-1.6-.32-2.37-.21-.77-.57-1.46-1.08-2.08-.51-.61-1.19-1.1-2.05-1.47-.86-.37-1.94-.55-3.24-.55h-2.03c-.58,0-1.08.02-1.5.05v12.58Z"></path><path d="M310.48,254.97c1.86.84,3.4,2.04,4.61,3.58,1.21,1.54,2.1,3.43,2.66,5.66.56,2.23.84,4.73.84,7.5s-.31,5.24-.92,7.5c-.62,2.26-1.56,4.2-2.84,5.82-1.28,1.61-2.9,2.87-4.84,3.76-1.95.9-4.25,1.34-6.92,1.34s-4.89-.4-6.76-1.19c-1.88-.79-3.42-1.95-4.63-3.47-1.21-1.52-2.1-3.38-2.66-5.55s-.84-4.67-.84-7.48.31-5.25.92-7.55c.61-2.3,1.56-4.28,2.84-5.95,1.28-1.67,2.9-2.96,4.87-3.87,1.97-.91,4.28-1.37,6.95-1.37s4.88.42,6.74,1.26ZM299.17,259.58c-1.02.69-1.84,1.62-2.47,2.82-.63,1.19-1.08,2.6-1.34,4.21-.26,1.61-.39,3.37-.39,5.26,0,1.79.12,3.49.37,5.11.24,1.61.69,3.04,1.34,4.26.65,1.23,1.54,2.21,2.68,2.95,1.14.74,2.62,1.11,4.45,1.11,1.51,0,2.78-.33,3.82-1,1.03-.67,1.87-1.58,2.5-2.74s1.08-2.54,1.34-4.13c.26-1.6.4-3.32.4-5.18s-.12-3.51-.37-5.16c-.25-1.65-.69-3.11-1.34-4.37-.65-1.26-1.54-2.27-2.68-3.03-1.14-.76-2.62-1.13-4.45-1.13-1.54,0-2.83.34-3.84,1.03Z"></path><path d="M330.12,254.18c.24,0,.81,0,1.68-.03s1.86-.03,2.95-.03,2.18,0,3.26-.03c1.09-.02,1.98-.03,2.68-.03,4.35,0,7.53.85,9.53,2.55,2,1.7,3,4.1,3,7.18,0,2.04-.51,3.84-1.53,5.42s-2.68,2.72-5,3.42c.98.56,1.86,1.33,2.63,2.32.77.98,1.53,2.18,2.26,3.61.74,1.42,1.49,3.07,2.26,4.95.77,1.88,1.67,3.97,2.68,6.29h-6.79c-1.19-2.77-2.24-5.14-3.13-7.11-.89-1.97-1.76-3.56-2.6-4.79-.84-1.23-1.75-2.12-2.71-2.68-.97-.56-2.1-.84-3.39-.84h-1.53v15.42h-6.26v-35.63ZM336.38,269.81h4.05c1.97,0,3.48-.44,4.55-1.32,1.07-.88,1.61-2.17,1.61-3.9,0-.77-.11-1.52-.32-2.26s-.57-1.39-1.08-1.95-1.19-1.01-2.05-1.34c-.86-.33-1.94-.5-3.24-.5h-3.53v11.26Z"></path><path d="M385.38,254.18l-.79,4.74h-8.84v30.9h-6.21v-30.9h-9v-4.74h24.84Z"></path><path d="M433.59,261.34c-.84-.91-1.73-1.61-2.66-2.08-.93-.47-2.01-.71-3.24-.71-1.51,0-2.78.34-3.82,1.03-1.04.69-1.87,1.63-2.5,2.84-.63,1.21-1.09,2.62-1.37,4.24-.28,1.61-.42,3.35-.42,5.21s.13,3.6.4,5.21c.26,1.61.72,3.04,1.37,4.26.65,1.23,1.53,2.19,2.63,2.9,1.11.7,2.5,1.05,4.18,1.05.81,0,1.58-.07,2.32-.21s1.41-.29,2.03-.45c.61-.16,1.12-.31,1.52-.45.4-.14.66-.23.76-.26l1.47,4.42-.68.26c-.46.18-1.1.38-1.92.6-.83.23-1.81.44-2.95.63-1.14.19-2.4.29-3.76.29-4.7,0-8.24-1.5-10.61-4.5s-3.55-7.39-3.55-13.19c0-2.77.31-5.31.95-7.61.63-2.3,1.59-4.27,2.87-5.92,1.28-1.65,2.89-2.93,4.84-3.84,1.95-.91,4.24-1.37,6.87-1.37,2.11,0,3.83.39,5.18,1.16,1.35.77,2.45,1.65,3.29,2.63l-3.21,3.84Z"></path><path d="M447.02,254.18h21.16v4.74h-14.9v9.95h12.26l-.79,4.79h-11.47v11.42h15.68v4.74h-21.95v-35.63Z"></path><path d="M500.54,254.18h6.26v35.69h-5.21l-12-18.74c-.67-1.02-1.39-2.17-2.18-3.45s-1.54-2.47-2.24-3.55c.1,1.12.2,2.3.29,3.53.09,1.23.13,2.4.13,3.53l.16,18.63h-6.26v-35.74h4.9l12.37,18.53c.7,1.02,1.41,2.1,2.13,3.24.72,1.14,1.43,2.24,2.13,3.29-.07-1.12-.14-2.25-.21-3.39-.07-1.14-.11-2.11-.11-2.92l-.16-18.63Z"></path><path d="M541.33,254.18l-.79,4.74h-8.84v30.9h-6.21v-30.9h-9v-4.74h24.84Z"></path><path d="M551.07,254.18h21.16v4.74h-14.9v9.95h12.26l-.79,4.79h-11.47v11.42h15.68v4.74h-21.95v-35.63Z"></path><path d="M583.54,254.18c.24,0,.81,0,1.68-.03s1.86-.03,2.95-.03,2.18,0,3.26-.03c1.09-.02,1.98-.03,2.68-.03,4.35,0,7.53.85,9.53,2.55,2,1.7,3,4.1,3,7.18,0,2.04-.51,3.84-1.53,5.42s-2.68,2.72-5,3.42c.98.56,1.86,1.33,2.63,2.32.77.98,1.53,2.18,2.26,3.61.74,1.42,1.49,3.07,2.26,4.95.77,1.88,1.67,3.97,2.68,6.29h-6.79c-1.19-2.77-2.24-5.14-3.13-7.11-.89-1.97-1.76-3.56-2.6-4.79-.84-1.23-1.75-2.12-2.71-2.68-.97-.56-2.1-.84-3.39-.84h-1.53v15.42h-6.26v-35.63ZM589.81,269.81h4.05c1.97,0,3.48-.44,4.55-1.32,1.07-.88,1.61-2.17,1.61-3.9,0-.77-.11-1.52-.32-2.26s-.57-1.39-1.08-1.95c-.51-.56-1.19-1.01-2.05-1.34-.86-.33-1.94-.5-3.24-.5h-3.53v11.26Z"></path></svg>