<!-- Generator: Adobe Illustrator 24.1.1, SVG Export Plug-In  -->
<svg version="1.1" xmlns="http://www.w3.org/2000/svg" xmlns:xlink="http://www.w3.org/1999/xlink" x="0px" y="0px"
	 width="929.01px" height="175.09px" viewBox="0 0 929.01 175.09" style="enable-background:new 0 0 929.01 175.09;"
	 xml:space="preserve">
<style type="text/css">
	.st0{opacity:0.2;}
	.st1{fill:#2B2B2B;}
	.st2{fill:#2B2B2B;stroke:#2B2B2B;stroke-width:7;stroke-miterlimit:10;}
	.st3{fill:#3A489E;}
</style>
<defs>
</defs>
<g>
	<g class="st0">
		<g>
			<path class="st1" d="M371.2,1.19h29.91c0.65,0,1.73,0.43,1.95,1.3l34.25,96.67l33.81-96.67c0.22-0.87,1.3-1.3,2.17-1.3h29.69
				c1.95,0,2.82,1.3,2.17,2.6l-65.68,169.5c-0.65,1.73-3.68,1.73-4.33,0L369.25,3.79C368.6,2.49,369.68,1.19,371.2,1.19z"/>
			<path class="st1" d="M437.3,175.09c-1.23,0-2.26-0.64-2.63-1.62L368.78,3.97c-0.33-0.66-0.3-1.43,0.09-2.07
				c0.46-0.74,1.35-1.21,2.32-1.21h29.91c0.81,0,2.15,0.53,2.44,1.68l33.76,95.29l33.35-95.33c0.26-1.06,1.53-1.64,2.64-1.64h29.69
				c1.17,0,2.11,0.43,2.58,1.19c0.39,0.63,0.4,1.4,0.03,2.14l-65.66,169.46C439.57,174.46,438.54,175.09,437.3,175.09z M371.2,1.69
				c-0.63,0-1.19,0.28-1.47,0.73c-0.15,0.25-0.28,0.64-0.03,1.14l65.91,169.54c0.27,0.73,1.09,0.98,1.7,0.98
				c0.62,0,1.43-0.26,1.7-0.98l65.68-169.5c0.23-0.46,0.23-0.88,0.03-1.21c-0.28-0.45-0.91-0.71-1.73-0.71h-29.69
				c-0.71,0-1.54,0.34-1.68,0.92l-34.3,98.06L402.59,2.66c-0.17-0.66-1.04-0.97-1.48-0.97H371.2z"/>
		</g>
	</g>
	<g class="st0">
		<path class="st1" d="M387.26,174.57h-29.91c-0.65,0-1.73-0.43-1.95-1.3l-34.25-96.67l-33.81,96.67c-0.22,0.87-1.3,1.3-2.17,1.3
			h-29.7c-1.95,0-2.82-1.3-2.17-2.6l65.68-169.5c0.65-1.73,3.68-1.73,4.33,0l65.89,169.5C389.86,173.27,388.78,174.57,387.26,174.57
			z"/>
		<path class="st1" d="M387.26,175.07h-29.91c-0.81,0-2.15-0.53-2.44-1.68L321.16,78.1l-33.34,95.33c-0.26,1.06-1.53,1.64-2.64,1.64
			h-29.7c-1.17,0-2.11-0.43-2.58-1.19c-0.39-0.63-0.4-1.4-0.03-2.14L318.52,2.29c0.37-0.98,1.4-1.62,2.63-1.62
			c1.23,0,2.26,0.64,2.63,1.62l65.89,169.49c0.33,0.66,0.3,1.43-0.09,2.08C389.13,174.6,388.24,175.07,387.26,175.07z M321.15,75.09
			l34.72,98.01c0.15,0.61,0.98,0.97,1.48,0.97h29.91c0.63,0,1.19-0.28,1.47-0.73c0.15-0.25,0.28-0.65,0.03-1.15L322.86,2.65
			c-0.27-0.73-1.09-0.98-1.7-0.98c-0.62,0-1.43,0.26-1.7,0.98l-65.68,169.5c-0.23,0.46-0.23,0.88-0.03,1.21
			c0.28,0.45,0.91,0.71,1.73,0.71h29.7c0.71,0,1.54-0.34,1.68-0.92L321.15,75.09z"/>
	</g>
	<g class="st0">
		<path class="st1" d="M614.18,174.57h-29.91c-0.65,0-1.73-0.43-1.95-1.3l-34.25-96.67l-33.81,96.67c-0.22,0.87-1.3,1.3-2.17,1.3
			h-29.7c-1.95,0-2.82-1.3-2.17-2.6L545.9,2.47c0.65-1.73,3.68-1.73,4.33,0l65.89,169.5C616.78,173.27,615.69,174.57,614.18,174.57z
			"/>
		<path class="st1" d="M614.18,175.07h-29.91c-0.81,0-2.15-0.53-2.44-1.68L548.07,78.1l-33.34,95.33c-0.26,1.06-1.53,1.64-2.64,1.64
			h-29.7c-1.17,0-2.11-0.43-2.58-1.19c-0.39-0.63-0.4-1.4-0.03-2.14L545.43,2.29c0.37-0.98,1.4-1.62,2.63-1.62
			c1.23,0,2.26,0.64,2.63,1.62l65.89,169.49c0.33,0.66,0.3,1.43-0.09,2.08C616.04,174.6,615.15,175.07,614.18,175.07z M548.06,75.09
			l34.72,98.01c0.15,0.61,0.98,0.97,1.48,0.97h29.91c0.63,0,1.19-0.28,1.47-0.73c0.15-0.25,0.28-0.65,0.03-1.15L549.77,2.65
			c-0.27-0.73-1.09-0.98-1.7-0.98c-0.62,0-1.43,0.26-1.7,0.98l-65.68,169.5c-0.23,0.46-0.23,0.88-0.03,1.21
			c0.28,0.45,0.91,0.71,1.73,0.71h29.7c0.71,0,1.54-0.34,1.68-0.92L548.06,75.09z"/>
	</g>
	<g>
		<path class="st1" d="M379.26,173.9h-29.91c-0.65,0-1.73-0.43-1.95-1.3l-34.25-96.67l-33.81,96.67c-0.22,0.87-1.3,1.3-2.17,1.3
			h-29.69c-1.95,0-2.82-1.3-2.17-2.6L310.98,1.8c0.65-1.73,3.68-1.73,4.33,0l65.89,169.5C381.86,172.6,380.77,173.9,379.26,173.9z"
			/>
		<path class="st1" d="M379.26,174.4h-29.91c-0.81,0-2.15-0.53-2.44-1.68l-33.76-95.29l-33.35,95.33c-0.26,1.06-1.53,1.64-2.64,1.64
			h-29.69c-1.17,0-2.11-0.43-2.58-1.19c-0.39-0.63-0.4-1.4-0.03-2.14L310.52,1.62c0.37-0.98,1.4-1.62,2.63-1.62
			c1.23,0,2.26,0.64,2.63,1.62l65.89,169.49c0.33,0.66,0.3,1.43-0.09,2.07C381.12,173.94,380.23,174.4,379.26,174.4z M313.15,74.42
			l34.72,98.01c0.17,0.66,1.04,0.97,1.48,0.97h29.91c0.63,0,1.19-0.28,1.47-0.73c0.15-0.25,0.28-0.64,0.03-1.14L314.85,1.98
			c-0.27-0.73-1.09-0.98-1.7-0.98c-0.62,0-1.43,0.26-1.7,0.98l-65.68,169.5c-0.23,0.46-0.23,0.88-0.03,1.21
			c0.28,0.45,0.91,0.71,1.73,0.71h29.69c0.71,0,1.54-0.34,1.68-0.92L313.15,74.42z"/>
	</g>
	<g>
		<path class="st1" d="M606.17,173.9h-29.91c-0.65,0-1.73-0.43-1.95-1.3l-34.25-96.67l-33.81,96.67c-0.22,0.87-1.3,1.3-2.17,1.3
			h-29.7c-1.95,0-2.82-1.3-2.17-2.6L537.89,1.8c0.65-1.73,3.69-1.73,4.34,0l65.89,169.5C608.77,172.6,607.69,173.9,606.17,173.9z"/>
		<path class="st1" d="M606.17,174.4h-29.91c-0.81,0-2.15-0.53-2.44-1.68l-33.76-95.29l-33.34,95.33c-0.26,1.06-1.53,1.64-2.64,1.64
			h-29.7c-1.17,0-2.11-0.43-2.58-1.19c-0.39-0.63-0.4-1.4-0.03-2.14L537.43,1.62c0.37-0.98,1.4-1.62,2.63-1.62
			c1.23,0,2.27,0.64,2.64,1.62l65.89,169.49c0.33,0.66,0.3,1.43-0.09,2.07C608.03,173.94,607.14,174.4,606.17,174.4z M540.06,74.42
			l34.72,98.01c0.17,0.66,1.04,0.97,1.48,0.97h29.91c0.63,0,1.19-0.28,1.47-0.73c0.15-0.25,0.28-0.64,0.03-1.14L541.76,1.98
			c-0.27-0.73-1.09-0.98-1.7-0.98c-0.62,0-1.43,0.26-1.7,0.98l-65.68,169.5c-0.23,0.46-0.23,0.88-0.03,1.21
			c0.28,0.45,0.91,0.71,1.73,0.71h29.7c0.71,0,1.54-0.34,1.68-0.92L540.06,74.42z"/>
	</g>
	<path class="st2" d="M88.02,91.45H22.94v79.55H3.5V5.57h84.52v19.21H22.94v47.46h65.09V91.45z"/>
	<path class="st2" d="M224.52,171.01h-24.41l-58.31-75.48h-6.78v75.48h-19.44V5.57h33.9c18.08,0,30.51,0.79,37.29,2.37
		c6.78,1.58,12.66,4.26,17.63,8.02c4.97,3.77,8.89,8.63,11.75,14.58c2.86,5.95,4.29,12.54,4.29,19.77
		c0,13.71-4.67,24.67-14.01,32.88c-9.34,8.21-22.83,12.32-40.45,12.32L224.52,171.01z M135.03,76.54h26.44
		c13.26,0.15,23.05-1.84,29.38-5.99c6.33-4.14,9.49-10.77,9.49-19.89c0-9.11-3.09-15.74-9.27-19.89
		c-6.18-4.14-15.82-6.21-28.93-6.21h-27.12V76.54z"/>
	<g>
		<path class="st2" d="M749.61,170.6h-5.29L649.83,49.54V170.6h-17.92V3.71h5.29l95.09,122.66V3.71h17.31V170.6z"/>
	</g>
	<g>
		<path class="st2" d="M846.99,4.29c14.36,0,27.58,3.64,39.66,10.91c12.08,7.27,21.57,17.32,28.49,30.14
			c6.91,12.82,10.37,26.75,10.37,41.8c0,15.05-3.42,28.98-10.27,41.8c-6.85,12.82-16.24,22.9-28.19,30.24
			c-11.95,7.35-24.93,11.02-38.96,11.02c-14.03,0-27.08-3.64-39.16-10.91c-12.08-7.27-21.54-17.28-28.39-30.03
			c-6.85-12.75-10.27-26.64-10.27-41.69c0-15.05,3.42-29.02,10.27-41.91c6.84-12.89,16.21-23.01,28.08-30.35
			C820.52,7.97,833.3,4.29,846.99,4.29z M847.59,152.06c16.78,0,30.97-6.12,42.58-18.36c11.61-12.24,17.42-27.58,17.42-46.01
			c0-18.43-5.87-33.92-17.62-46.45c-11.75-12.53-25.87-18.79-42.38-18.79c-16.91,0-31.04,6.3-42.38,18.9
			c-11.34,12.6-17.01,27.94-17.01,46.01c0,18.08,5.84,33.38,17.52,45.91C817.39,145.79,831.35,152.06,847.59,152.06z"/>
	</g>
	<g>
		<g>
			<path class="st3" d="M362.63,0.5h29.91c0.65,0,1.73,0.43,1.95,1.3l34.25,96.67L462.56,1.8c0.22-0.87,1.3-1.3,2.17-1.3h29.69
				c1.95,0,2.82,1.3,2.17,2.6l-65.68,169.5c-0.65,1.73-3.68,1.73-4.33,0L360.68,3.1C360.03,1.8,361.12,0.5,362.63,0.5z"/>
			<path class="st1" d="M428.74,174.4c-1.23,0-2.26-0.64-2.63-1.62L360.22,3.28c-0.33-0.66-0.3-1.43,0.09-2.07
				c0.46-0.74,1.35-1.21,2.32-1.21h29.91c0.81,0,2.15,0.53,2.44,1.68l33.76,95.29l33.35-95.33c0.26-1.06,1.53-1.64,2.64-1.64h29.69
				c1.17,0,2.11,0.43,2.58,1.19c0.39,0.63,0.4,1.4,0.03,2.14l-65.66,169.46C431.01,173.76,429.97,174.4,428.74,174.4z M362.63,1
				c-0.63,0-1.19,0.28-1.47,0.73c-0.15,0.25-0.28,0.64-0.03,1.14l65.91,169.54c0.27,0.73,1.09,0.98,1.7,0.98
				c0.62,0,1.43-0.26,1.7-0.98l65.68-169.5c0.23-0.46,0.23-0.88,0.03-1.21C495.87,1.26,495.24,1,494.42,1h-29.69
				c-0.71,0-1.54,0.34-1.68,0.92l-34.3,98.06L394.02,1.97C393.86,1.31,392.99,1,392.54,1H362.63z"/>
		</g>
	</g>
</g>
</svg>
